<svg width="322" height="66" viewBox="0 0 322 66" fill="none" xmlns="http://www.w3.org/2000/svg">
<path fill-rule="evenodd" clip-rule="evenodd" d="M14.202 8.185L0 16.369L0.000999451 32.869L0.00299931 49.369L13.723 57.286L27.443 65.202H28.466H29.489L43.209 57.286L56.929 49.369L56.941 32.869L56.953 16.369L48.232 11.369L39.51 6.369L33.958 3.185L28.405 0L14.202 8.185ZM34.346 14.369L38.986 21.369L28.846 21.655L18.706 21.942L18.284 21.52L17.863 21.099L23.095 13.465L28.327 5.83L29.016 6.6L29.705 7.369L34.346 14.369ZM17.045 15.752L12.945 21.789L9.413 19.705L5.881 17.621L6.173 17.34L6.466 17.058L13.439 13.02L20.413 8.983L20.779 9.349L21.145 9.715L17.045 15.752ZM49.26 16.414L51.054 17.619L47.52 19.704L43.987 21.789L39.976 15.884L35.966 9.979V9.35V8.722L41.716 11.966L47.466 15.21L49.26 16.414ZM9.116 24.046L10.766 25.369L7.45 32.369L4.133 39.369L4.05 30.084L3.966 20.799L5.716 21.761L7.466 22.722L9.116 24.046ZM52.907 30.119L52.847 39.369L49.419 32.369L45.99 25.369L45.978 25.217L45.966 25.065L49.216 22.984L52.466 20.903L52.716 20.886L52.966 20.869L52.907 30.119ZM39.681 26.619L39.278 27.369L33.998 36.619L28.717 45.869H28.429H28.141L23.697 38.119L19.253 30.369L18.074 28.119L16.896 25.869H28.49H40.084L39.681 26.619ZM18.551 36.628L22.298 43.369L23.794 45.691L25.291 48.014L15.378 47.31L5.466 46.606L5.166 46.354L4.865 46.102L9.109 37.546L13.352 28.989L14.078 29.438L14.804 29.887L18.551 36.628ZM51.779 46.341L51.466 46.606L41.592 47.307L31.717 48.008L33.71 44.688L35.703 41.369L38.507 36.369L41.31 31.369L42.334 30.031L43.357 28.693L47.724 37.385L52.092 46.076L51.779 46.341ZM21.716 51.517L26.966 52.148V56.115V60.083L25.716 59.592L24.466 59.101L17.466 55.002L10.466 50.904L13.466 50.895L16.466 50.886L21.716 51.517ZM38.737 55.369L31.049 59.869H30.508H29.966V55.929V51.99L33.716 51.597L37.466 51.205L41.945 51.037L46.424 50.869L38.737 55.369Z" fill="black"/>
<path d="M86.968 38.968C87.096 38.968 87.224 38.9947 87.352 39.048C87.48 39.0907 87.6027 39.1707 87.72 39.288L89.864 41.544C88.9253 42.7707 87.7467 43.6987 86.328 44.328C84.92 44.9467 83.2507 45.256 81.32 45.256C79.5493 45.256 77.96 44.9573 76.552 44.36C75.1547 43.752 73.9653 42.92 72.984 41.864C72.0133 40.7973 71.2667 39.5387 70.744 38.088C70.2213 36.6267 69.96 35.0427 69.96 33.336C69.96 31.5973 70.2427 30.0027 70.808 28.552C71.3733 27.0907 72.168 25.832 73.192 24.776C74.216 23.72 75.4427 22.8987 76.872 22.312C78.3013 21.7253 79.8747 21.432 81.592 21.432C82.4667 21.432 83.288 21.512 84.056 21.672C84.8347 21.8213 85.56 22.0347 86.232 22.312C86.904 22.5787 87.5227 22.904 88.088 23.288C88.6533 23.672 89.1547 24.088 89.592 24.536L87.768 26.984C87.6507 27.1333 87.512 27.272 87.352 27.4C87.192 27.5173 86.968 27.576 86.68 27.576C86.488 27.576 86.3067 27.5333 86.136 27.448C85.9653 27.3627 85.784 27.2613 85.592 27.144C85.4 27.016 85.1867 26.8827 84.952 26.744C84.728 26.5947 84.456 26.4613 84.136 26.344C83.8267 26.216 83.4587 26.1093 83.032 26.024C82.616 25.9387 82.1253 25.896 81.56 25.896C80.664 25.896 79.8427 26.0613 79.096 26.392C78.36 26.7227 77.72 27.208 77.176 27.848C76.6427 28.4773 76.2267 29.256 75.928 30.184C75.64 31.1013 75.496 32.152 75.496 33.336C75.496 34.5307 75.656 35.592 75.976 36.52C76.3067 37.448 76.7493 38.232 77.304 38.872C77.8693 39.5013 78.5253 39.9813 79.272 40.312C80.0187 40.6427 80.8187 40.808 81.672 40.808C82.1627 40.808 82.6107 40.7867 83.016 40.744C83.4213 40.6907 83.8 40.6107 84.152 40.504C84.504 40.3867 84.8347 40.2373 85.144 40.056C85.4533 39.864 85.768 39.624 86.088 39.336C86.216 39.2293 86.3547 39.144 86.504 39.08C86.6533 39.0053 86.808 38.968 86.968 38.968ZM96.6088 29.864C97.2061 29.352 97.8514 28.9413 98.5448 28.632C99.2488 28.312 100.086 28.152 101.057 28.152C101.963 28.152 102.763 28.312 103.457 28.632C104.161 28.9413 104.753 29.3787 105.233 29.944C105.713 30.4987 106.075 31.1653 106.321 31.944C106.566 32.712 106.689 33.5493 106.689 34.456V45H101.729V34.456C101.729 33.6453 101.542 33.016 101.169 32.568C100.795 32.1093 100.246 31.88 99.5208 31.88C98.9768 31.88 98.4648 31.9973 97.9848 32.232C97.5154 32.456 97.0568 32.7653 96.6088 33.16V45H91.6488V21.048H96.6088V29.864ZM118.459 38.248C117.467 38.2907 116.651 38.376 116.011 38.504C115.371 38.632 114.864 38.792 114.491 38.984C114.117 39.176 113.856 39.3947 113.707 39.64C113.568 39.8853 113.499 40.152 113.499 40.44C113.499 41.0053 113.653 41.4053 113.963 41.64C114.272 41.864 114.725 41.976 115.323 41.976C115.963 41.976 116.523 41.864 117.003 41.64C117.483 41.416 117.968 41.0533 118.459 40.552V38.248ZM109.531 30.712C110.533 29.8267 111.643 29.1707 112.859 28.744C114.085 28.3067 115.397 28.088 116.795 28.088C117.797 28.088 118.699 28.2533 119.499 28.584C120.309 28.904 120.992 29.3573 121.547 29.944C122.112 30.52 122.544 31.208 122.843 32.008C123.141 32.808 123.291 33.6827 123.291 34.632V45H121.019C120.549 45 120.192 44.936 119.947 44.808C119.712 44.68 119.515 44.4133 119.355 44.008L119.003 43.096C118.587 43.448 118.187 43.7573 117.803 44.024C117.419 44.2907 117.019 44.52 116.603 44.712C116.197 44.8933 115.76 45.0267 115.291 45.112C114.832 45.208 114.32 45.256 113.755 45.256C112.997 45.256 112.309 45.16 111.691 44.968C111.072 44.7653 110.544 44.472 110.107 44.088C109.68 43.704 109.349 43.2293 109.115 42.664C108.88 42.088 108.763 41.4267 108.763 40.68C108.763 40.0827 108.912 39.48 109.211 38.872C109.509 38.2533 110.027 37.6933 110.763 37.192C111.499 36.68 112.491 36.2533 113.739 35.912C114.987 35.5707 116.56 35.3787 118.459 35.336V34.632C118.459 33.6613 118.256 32.9627 117.851 32.536C117.456 32.0987 116.891 31.88 116.155 31.88C115.568 31.88 115.088 31.944 114.715 32.072C114.341 32.2 114.005 32.344 113.707 32.504C113.419 32.664 113.136 32.808 112.859 32.936C112.581 33.064 112.251 33.128 111.867 33.128C111.525 33.128 111.237 33.0427 111.003 32.872C110.768 32.7013 110.576 32.4987 110.427 32.264L109.531 30.712ZM131.101 30.968C131.613 30.072 132.2 29.368 132.861 28.856C133.533 28.344 134.301 28.088 135.165 28.088C135.912 28.088 136.52 28.264 136.989 28.616L136.669 32.264C136.616 32.4987 136.525 32.6587 136.397 32.744C136.28 32.8293 136.115 32.872 135.901 32.872C135.816 32.872 135.704 32.8667 135.565 32.856C135.427 32.8453 135.283 32.8347 135.133 32.824C134.984 32.8027 134.829 32.7867 134.669 32.776C134.52 32.7547 134.381 32.744 134.253 32.744C133.528 32.744 132.947 32.936 132.509 33.32C132.083 33.704 131.72 34.2373 131.421 34.92V45H126.461V28.408H129.405C129.651 28.408 129.853 28.4293 130.013 28.472C130.184 28.5147 130.323 28.584 130.429 28.68C130.547 28.7653 130.632 28.8827 130.685 29.032C130.749 29.1813 130.803 29.3627 130.845 29.576L131.101 30.968ZM147.084 38.248C146.092 38.2907 145.276 38.376 144.636 38.504C143.996 38.632 143.489 38.792 143.116 38.984C142.742 39.176 142.481 39.3947 142.332 39.64C142.193 39.8853 142.124 40.152 142.124 40.44C142.124 41.0053 142.278 41.4053 142.588 41.64C142.897 41.864 143.35 41.976 143.948 41.976C144.588 41.976 145.148 41.864 145.628 41.64C146.108 41.416 146.593 41.0533 147.084 40.552V38.248ZM138.156 30.712C139.158 29.8267 140.268 29.1707 141.484 28.744C142.71 28.3067 144.022 28.088 145.42 28.088C146.422 28.088 147.324 28.2533 148.124 28.584C148.934 28.904 149.617 29.3573 150.172 29.944C150.737 30.52 151.169 31.208 151.468 32.008C151.766 32.808 151.916 33.6827 151.916 34.632V45H149.644C149.174 45 148.817 44.936 148.572 44.808C148.337 44.68 148.14 44.4133 147.98 44.008L147.628 43.096C147.212 43.448 146.812 43.7573 146.428 44.024C146.044 44.2907 145.644 44.52 145.228 44.712C144.822 44.8933 144.385 45.0267 143.916 45.112C143.457 45.208 142.945 45.256 142.38 45.256C141.622 45.256 140.934 45.16 140.316 44.968C139.697 44.7653 139.169 44.472 138.732 44.088C138.305 43.704 137.974 43.2293 137.74 42.664C137.505 42.088 137.388 41.4267 137.388 40.68C137.388 40.0827 137.537 39.48 137.836 38.872C138.134 38.2533 138.652 37.6933 139.388 37.192C140.124 36.68 141.116 36.2533 142.364 35.912C143.612 35.5707 145.185 35.3787 147.084 35.336V34.632C147.084 33.6613 146.881 32.9627 146.476 32.536C146.081 32.0987 145.516 31.88 144.78 31.88C144.193 31.88 143.713 31.944 143.34 32.072C142.966 32.2 142.63 32.344 142.332 32.504C142.044 32.664 141.761 32.808 141.484 32.936C141.206 33.064 140.876 33.128 140.492 33.128C140.15 33.128 139.862 33.0427 139.628 32.872C139.393 32.7013 139.201 32.4987 139.052 32.264L138.156 30.712ZM167.278 32.344C167.129 32.5253 166.985 32.6693 166.846 32.776C166.708 32.8827 166.51 32.936 166.254 32.936C166.009 32.936 165.785 32.8773 165.582 32.76C165.39 32.6427 165.172 32.5147 164.926 32.376C164.681 32.2267 164.393 32.0933 164.062 31.976C163.732 31.8587 163.321 31.8 162.83 31.8C162.222 31.8 161.694 31.912 161.246 32.136C160.809 32.36 160.446 32.68 160.158 33.096C159.87 33.512 159.657 34.024 159.518 34.632C159.38 35.2293 159.31 35.9067 159.31 36.664C159.31 38.2533 159.614 39.4747 160.222 40.328C160.841 41.1813 161.689 41.608 162.766 41.608C163.342 41.608 163.796 41.5387 164.126 41.4C164.468 41.2507 164.756 41.0907 164.99 40.92C165.225 40.7387 165.438 40.5733 165.63 40.424C165.833 40.2747 166.084 40.2 166.382 40.2C166.777 40.2 167.076 40.344 167.278 40.632L168.718 42.408C168.206 42.9947 167.668 43.4747 167.102 43.848C166.537 44.2107 165.956 44.4987 165.358 44.712C164.772 44.9147 164.18 45.0533 163.582 45.128C162.985 45.2133 162.404 45.256 161.838 45.256C160.825 45.256 159.854 45.064 158.926 44.68C158.009 44.296 157.198 43.7413 156.494 43.016C155.801 42.28 155.246 41.3787 154.83 40.312C154.425 39.2453 154.222 38.0293 154.222 36.664C154.222 35.4693 154.398 34.3547 154.75 33.32C155.113 32.2747 155.641 31.3733 156.334 30.616C157.038 29.848 157.902 29.2453 158.926 28.808C159.961 28.3707 161.156 28.152 162.51 28.152C163.812 28.152 164.953 28.36 165.934 28.776C166.916 29.192 167.801 29.8 168.59 30.6L167.278 32.344ZM176.585 45.256C175.795 45.256 175.097 45.144 174.489 44.92C173.891 44.6853 173.385 44.36 172.969 43.944C172.563 43.5173 172.254 43.0053 172.041 42.408C171.827 41.8107 171.721 41.144 171.721 40.408V31.832H170.313C170.057 31.832 169.838 31.752 169.657 31.592C169.475 31.4213 169.385 31.176 169.385 30.856V28.92L172.025 28.408L173.001 24.36C173.129 23.848 173.491 23.592 174.089 23.592H176.681V28.44H180.793V31.832H176.681V40.072C176.681 40.456 176.771 40.776 176.953 41.032C177.145 41.2773 177.417 41.4 177.769 41.4C177.95 41.4 178.099 41.384 178.217 41.352C178.345 41.3093 178.451 41.2667 178.537 41.224C178.633 41.1707 178.718 41.128 178.793 41.096C178.878 41.0533 178.974 41.032 179.081 41.032C179.23 41.032 179.347 41.0693 179.433 41.144C179.529 41.208 179.625 41.3147 179.721 41.464L181.225 43.816C180.585 44.296 179.865 44.6587 179.065 44.904C178.265 45.1387 177.438 45.256 176.585 45.256ZM193.094 34.712C193.094 34.3173 193.04 33.9333 192.934 33.56C192.838 33.1867 192.672 32.856 192.438 32.568C192.214 32.2693 191.915 32.0293 191.542 31.848C191.168 31.6667 190.715 31.576 190.182 31.576C189.243 31.576 188.507 31.848 187.974 32.392C187.44 32.9253 187.088 33.6987 186.918 34.712H193.094ZM186.854 37.592C187.014 38.9787 187.435 39.9867 188.118 40.616C188.8 41.2347 189.68 41.544 190.758 41.544C191.334 41.544 191.83 41.4747 192.246 41.336C192.662 41.1973 193.03 41.0427 193.35 40.872C193.68 40.7013 193.979 40.5467 194.246 40.408C194.523 40.2693 194.811 40.2 195.11 40.2C195.504 40.2 195.803 40.344 196.006 40.632L197.446 42.408C196.934 42.9947 196.379 43.4747 195.782 43.848C195.195 44.2107 194.587 44.4987 193.958 44.712C193.339 44.9147 192.715 45.0533 192.086 45.128C191.467 45.2133 190.875 45.256 190.31 45.256C189.147 45.256 188.054 45.0693 187.03 44.696C186.016 44.312 185.126 43.7467 184.358 43C183.6 42.2533 182.998 41.3253 182.55 40.216C182.112 39.1067 181.894 37.816 181.894 36.344C181.894 35.2347 182.08 34.184 182.454 33.192C182.838 32.2 183.382 31.3307 184.086 30.584C184.8 29.8373 185.659 29.2453 186.662 28.808C187.675 28.3707 188.816 28.152 190.086 28.152C191.184 28.152 192.187 28.3227 193.094 28.664C194.011 29.0053 194.795 29.5013 195.446 30.152C196.107 30.8027 196.619 31.6027 196.982 32.552C197.355 33.4907 197.542 34.5573 197.542 35.752C197.542 36.1253 197.526 36.4293 197.494 36.664C197.462 36.8987 197.403 37.0853 197.318 37.224C197.232 37.3627 197.115 37.4587 196.966 37.512C196.827 37.5653 196.646 37.592 196.422 37.592H186.854ZM204.664 30.968C205.176 30.072 205.762 29.368 206.424 28.856C207.096 28.344 207.864 28.088 208.728 28.088C209.474 28.088 210.082 28.264 210.552 28.616L210.232 32.264C210.178 32.4987 210.088 32.6587 209.96 32.744C209.842 32.8293 209.677 32.872 209.464 32.872C209.378 32.872 209.266 32.8667 209.128 32.856C208.989 32.8453 208.845 32.8347 208.696 32.824C208.546 32.8027 208.392 32.7867 208.232 32.776C208.082 32.7547 207.944 32.744 207.816 32.744C207.09 32.744 206.509 32.936 206.072 33.32C205.645 33.704 205.282 34.2373 204.984 34.92V45H200.024V28.408H202.968C203.213 28.408 203.416 28.4293 203.576 28.472C203.746 28.5147 203.885 28.584 203.992 28.68C204.109 28.7653 204.194 28.8827 204.248 29.032C204.312 29.1813 204.365 29.3627 204.408 29.576L204.664 30.968ZM228.785 40.92C229.499 40.92 230.081 40.8293 230.529 40.648C230.987 40.4667 231.345 40.232 231.601 39.944C231.857 39.656 232.033 39.3307 232.129 38.968C232.225 38.6053 232.273 38.2373 232.273 37.864C232.273 37.4373 232.214 37.0533 232.097 36.712C231.99 36.3707 231.798 36.0827 231.521 35.848C231.254 35.6133 230.897 35.432 230.449 35.304C230.001 35.176 229.435 35.112 228.753 35.112H224.977V40.92H228.785ZM224.977 25.736V31.496H227.793C228.39 31.496 228.929 31.4533 229.409 31.368C229.889 31.2827 230.294 31.1333 230.625 30.92C230.966 30.7067 231.222 30.4133 231.393 30.04C231.574 29.6667 231.665 29.1973 231.665 28.632C231.665 28.0773 231.595 27.6187 231.457 27.256C231.318 26.8827 231.105 26.584 230.817 26.36C230.529 26.136 230.161 25.976 229.713 25.88C229.275 25.784 228.753 25.736 228.145 25.736H224.977ZM228.145 21.688C229.755 21.688 231.126 21.8373 232.257 22.136C233.387 22.4347 234.31 22.856 235.024 23.4C235.739 23.944 236.257 24.6053 236.577 25.384C236.907 26.1627 237.073 27.032 237.073 27.992C237.073 28.5147 236.998 29.0213 236.849 29.512C236.699 29.992 236.465 30.4453 236.145 30.872C235.825 31.288 235.414 31.672 234.913 32.024C234.411 32.376 233.809 32.68 233.105 32.936C234.641 33.3093 235.777 33.912 236.513 34.744C237.249 35.576 237.617 36.6533 237.617 37.976C237.617 38.968 237.425 39.8907 237.041 40.744C236.657 41.5973 236.091 42.344 235.345 42.984C234.609 43.6133 233.697 44.1093 232.609 44.472C231.521 44.824 230.278 45 228.881 45H219.569V21.688H228.145ZM255.06 28.408V45H251.988C251.369 45 250.964 44.7227 250.772 44.168L250.484 43.208C250.164 43.5173 249.833 43.8 249.492 44.056C249.151 44.3013 248.783 44.5147 248.388 44.696C248.004 44.8667 247.583 45 247.124 45.096C246.676 45.2027 246.185 45.256 245.652 45.256C244.745 45.256 243.94 45.1013 243.236 44.792C242.543 44.472 241.956 44.0293 241.476 43.464C240.996 42.8987 240.633 42.232 240.388 41.464C240.143 40.696 240.02 39.8533 240.02 38.936V28.408H244.98V38.936C244.98 39.7573 245.167 40.392 245.54 40.84C245.913 41.288 246.463 41.512 247.188 41.512C247.732 41.512 248.239 41.4 248.708 41.176C249.188 40.9413 249.652 40.6267 250.1 40.232V28.408H255.06ZM263.502 28.408V45H258.542V28.408H263.502ZM264.014 23.864C264.014 24.2587 263.934 24.632 263.774 24.984C263.614 25.3253 263.395 25.6293 263.118 25.896C262.841 26.152 262.515 26.36 262.142 26.52C261.779 26.6693 261.39 26.744 260.974 26.744C260.569 26.744 260.19 26.6693 259.838 26.52C259.486 26.36 259.171 26.152 258.894 25.896C258.627 25.6293 258.414 25.3253 258.254 24.984C258.105 24.632 258.03 24.2587 258.03 23.864C258.03 23.4587 258.105 23.08 258.254 22.728C258.414 22.376 258.627 22.0667 258.894 21.8C259.171 21.5333 259.486 21.3253 259.838 21.176C260.19 21.0267 260.569 20.952 260.974 20.952C261.39 20.952 261.779 21.0267 262.142 21.176C262.515 21.3253 262.841 21.5333 263.118 21.8C263.395 22.0667 263.614 22.376 263.774 22.728C263.934 23.08 264.014 23.4587 264.014 23.864ZM271.921 21.048V45H266.961V21.048H271.921ZM285.338 32.856C284.964 32.44 284.559 32.152 284.122 31.992C283.684 31.8213 283.226 31.736 282.746 31.736C282.287 31.736 281.866 31.8267 281.482 32.008C281.098 32.1893 280.762 32.4827 280.474 32.888C280.196 33.2827 279.978 33.8 279.818 34.44C279.658 35.08 279.578 35.8533 279.578 36.76C279.578 37.6347 279.642 38.3707 279.77 38.968C279.898 39.5653 280.074 40.0507 280.298 40.424C280.532 40.7867 280.81 41.048 281.13 41.208C281.45 41.368 281.807 41.448 282.202 41.448C282.564 41.448 282.89 41.416 283.178 41.352C283.476 41.2773 283.748 41.176 283.994 41.048C284.239 40.92 284.468 40.76 284.682 40.568C284.906 40.3653 285.124 40.136 285.338 39.88V32.856ZM290.298 21.048V45H287.226C286.607 45 286.202 44.7227 286.01 44.168L285.626 42.904C285.295 43.256 284.948 43.576 284.586 43.864C284.223 44.152 283.828 44.4027 283.402 44.616C282.986 44.8187 282.532 44.9733 282.042 45.08C281.562 45.1973 281.039 45.256 280.474 45.256C279.61 45.256 278.81 45.064 278.074 44.68C277.338 44.296 276.703 43.7413 276.17 43.016C275.636 42.2907 275.215 41.4053 274.906 40.36C274.607 39.304 274.458 38.104 274.458 36.76C274.458 35.5227 274.628 34.376 274.97 33.32C275.311 32.2533 275.791 31.336 276.41 30.568C277.039 29.7893 277.791 29.1813 278.666 28.744C279.54 28.3067 280.506 28.088 281.562 28.088C282.426 28.088 283.151 28.2107 283.738 28.456C284.324 28.7013 284.858 29.032 285.338 29.448V21.048H290.298ZM303.969 34.712C303.969 34.3173 303.915 33.9333 303.809 33.56C303.713 33.1867 303.547 32.856 303.313 32.568C303.089 32.2693 302.79 32.0293 302.417 31.848C302.043 31.6667 301.59 31.576 301.057 31.576C300.118 31.576 299.382 31.848 298.849 32.392C298.315 32.9253 297.963 33.6987 297.793 34.712H303.969ZM297.729 37.592C297.889 38.9787 298.31 39.9867 298.993 40.616C299.675 41.2347 300.555 41.544 301.633 41.544C302.209 41.544 302.705 41.4747 303.121 41.336C303.537 41.1973 303.905 41.0427 304.225 40.872C304.555 40.7013 304.854 40.5467 305.121 40.408C305.398 40.2693 305.686 40.2 305.985 40.2C306.379 40.2 306.678 40.344 306.881 40.632L308.321 42.408C307.809 42.9947 307.254 43.4747 306.657 43.848C306.07 44.2107 305.462 44.4987 304.833 44.712C304.214 44.9147 303.59 45.0533 302.961 45.128C302.342 45.2133 301.75 45.256 301.185 45.256C300.022 45.256 298.929 45.0693 297.905 44.696C296.891 44.312 296.001 43.7467 295.233 43C294.475 42.2533 293.873 41.3253 293.425 40.216C292.987 39.1067 292.769 37.816 292.769 36.344C292.769 35.2347 292.955 34.184 293.329 33.192C293.713 32.2 294.257 31.3307 294.961 30.584C295.675 29.8373 296.534 29.2453 297.537 28.808C298.55 28.3707 299.691 28.152 300.961 28.152C302.059 28.152 303.062 28.3227 303.969 28.664C304.886 29.0053 305.67 29.5013 306.321 30.152C306.982 30.8027 307.494 31.6027 307.857 32.552C308.23 33.4907 308.417 34.5573 308.417 35.752C308.417 36.1253 308.401 36.4293 308.369 36.664C308.337 36.8987 308.278 37.0853 308.193 37.224C308.107 37.3627 307.99 37.4587 307.841 37.512C307.702 37.5653 307.521 37.592 307.297 37.592H297.729ZM315.539 30.968C316.051 30.072 316.637 29.368 317.299 28.856C317.971 28.344 318.739 28.088 319.603 28.088C320.349 28.088 320.957 28.264 321.427 28.616L321.107 32.264C321.053 32.4987 320.963 32.6587 320.835 32.744C320.717 32.8293 320.552 32.872 320.339 32.872C320.253 32.872 320.141 32.8667 320.003 32.856C319.864 32.8453 319.72 32.8347 319.571 32.824C319.421 32.8027 319.267 32.7867 319.107 32.776C318.957 32.7547 318.819 32.744 318.691 32.744C317.965 32.744 317.384 32.936 316.947 33.32C316.52 33.704 316.157 34.2373 315.859 34.92V45H310.899V28.408H313.843C314.088 28.408 314.291 28.4293 314.451 28.472C314.621 28.5147 314.76 28.584 314.867 28.68C314.984 28.7653 315.069 28.8827 315.123 29.032C315.187 29.1813 315.24 29.3627 315.283 29.576L315.539 30.968Z" fill="black"/>
</svg>
